# Blender v2.73 (sub 0) OBJ File: 'book-open.blend'
# www.blender.org
o Cube.002_Cube.001
v -0.012428 -0.485966 0.216625
v 0.000001 -0.486750 -0.220555
v -0.321341 -0.485966 -0.220555
v 0.000001 -0.462863 0.208120
v -0.310920 -0.485966 0.208120
v -0.317647 -0.448008 0.208120
v -0.317647 -0.448008 -0.212051
v -0.310920 -0.485966 -0.212051
v 0.000001 -0.462862 -0.212050
v -0.016802 -0.500002 -0.212050
v -0.016802 -0.500002 0.208120
v -0.046214 -0.500002 0.208120
v -0.046214 -0.500002 -0.212050
v -0.046214 -0.500002 0.216625
v -0.020445 -0.500002 0.216625
v -0.012428 -0.485966 -0.220555
v -0.020445 -0.500002 -0.220555
v -0.321340 -0.500002 -0.220555
v -0.321341 -0.500002 0.216624
v -0.046214 -0.500002 -0.220555
v -0.321341 -0.485966 0.216624
v -0.238235 -0.428477 0.208120
v 0.000001 -0.486750 0.216625
v -0.238235 -0.428477 -0.212051
v 0.317649 -0.448008 0.208120
v 0.317649 -0.448008 -0.212051
v 0.238237 -0.428477 0.208120
v 0.238237 -0.428477 -0.212051
v 0.046215 -0.500003 -0.212050
v 0.046215 -0.500003 0.208120
v 0.016803 -0.500003 0.208120
v 0.016803 -0.500003 -0.212050
v 0.000001 -0.481442 0.216625
v 0.000001 -0.481442 -0.220555
v 0.310922 -0.485967 -0.212051
v 0.310922 -0.485967 0.208120
v 0.321343 -0.485967 -0.220555
v 0.012430 -0.485967 0.216625
v 0.046215 -0.500003 0.216625
v 0.020447 -0.500003 0.216625
v 0.012430 -0.485967 -0.220555
v 0.020447 -0.500003 -0.220555
v 0.321342 -0.500003 -0.220555
v 0.321343 -0.500003 0.216624
v 0.046215 -0.500003 -0.220555
v 0.321343 -0.485967 0.216624
v 0.000001 -0.486750 0.208120
v 0.000001 -0.486750 -0.212050
v 0.086920 -0.420664 -0.212051
v 0.086920 -0.420664 0.208120
v -0.086847 -0.420664 -0.212051
v -0.086847 -0.420664 0.208120
v -0.043405 -0.432079 -0.212050
v -0.043405 -0.432079 0.208120
v 0.043478 -0.432079 -0.212050
v 0.043478 -0.432079 0.208120
v 0.010224 -0.490836 0.216625
v -0.006214 -0.482857 0.216625
v -0.006214 -0.482857 -0.220555
v -0.008400 -0.490836 0.208120
v -0.008400 -0.490836 -0.212050
v -0.010222 -0.490836 -0.220555
v -0.010222 -0.490836 0.216625
v 0.010224 -0.490836 -0.220555
v 0.008402 -0.490836 -0.212050
v 0.008402 -0.490836 0.208120
v 0.006215 -0.482858 -0.220555
v 0.006215 -0.482858 0.216625
v -0.012428 -0.485966 -0.212050
v 0.000001 -0.481442 -0.212050
v 0.012430 -0.485967 -0.212050
v -0.006214 -0.482857 -0.212050
v 0.006215 -0.482858 -0.212050
v -0.012428 -0.485966 0.208120
v 0.000001 -0.481442 0.208120
v 0.012430 -0.485967 0.208120
v -0.006214 -0.482857 0.208120
v 0.006215 -0.482858 0.208120
vt 0.965735 0.839196
vt 0.711783 0.839196
vt 0.711783 0.832541
vt 0.711783 0.503765
vt 0.711783 0.497110
vt 0.965736 0.497110
vt 0.395683 0.494736
vt 0.395683 0.261171
vt 0.403533 0.261171
vt 0.403532 0.502890
vt 0.687998 0.839196
vt 0.684635 0.832541
vt 0.987044 0.738829
vt 0.987044 0.497110
vt 1.000000 0.497110
vt 0.999999 0.712393
vt 0.999999 0.732556
vt 0.992051 0.000000
vt 0.992051 0.342086
vt 0.979145 0.342086
vt 0.979145 0.000000
vt 0.969912 1.000000
vt 0.969911 0.758280
vt 0.982867 0.764553
vt 0.982867 0.784716
vt 0.982868 0.999999
vt 0.403533 0.241720
vt 0.395683 0.241720
vt 0.395683 0.008154
vt 0.403532 0.000000
vt 0.684634 0.503765
vt 0.007850 0.008154
vt 0.000000 0.000000
vt 0.657486 0.832541
vt 0.657486 0.503765
vt 0.657486 0.497110
vt 0.681271 0.497110
vt 0.969911 0.497110
vt 0.982867 0.497110
vt 0.982868 0.712393
vt 0.982868 0.732556
vt 0.969912 0.738829
vt 0.966239 0.000000
vt 0.966239 0.342086
vt 0.987044 0.758280
vt 1.000000 0.764553
vt 1.000000 0.784716
vt 0.999999 1.000000
vt 0.987043 1.000000
vt 0.681271 0.839196
vt 0.657486 0.839196
vt 0.000000 0.261171
vt 0.007850 0.261171
vt 0.007850 0.494736
vt 0.000000 0.502891
vt 0.403534 0.839196
vt 0.403533 0.497110
vt 0.687998 0.497110
vt 0.974407 0.740555
vt 0.970635 0.748555
vt 0.967042 0.743692
vt 0.965736 0.748555
vt 0.967042 0.753417
vt 0.974406 0.756554
vt 0.991539 0.740555
vt 0.987768 0.748555
vt 0.984174 0.743692
vt 0.982868 0.748555
vt 0.984174 0.753417
vt 0.991539 0.756554
vt 0.044849 0.844977
vt 0.035593 0.844977
vt 0.035446 0.838322
vt 0.044554 0.838322
vt 0.956803 0.342087
vt 0.956803 0.335432
vt 0.964557 0.335432
vt 0.947366 0.342087
vt 0.949048 0.335432
vt 0.045143 0.838322
vt 0.054251 0.838322
vt 0.054104 0.844977
vt 0.044554 0.509546
vt 0.035446 0.509546
vt 0.035593 0.502890
vt 0.044849 0.502891
vt 0.964557 0.006655
vt 0.956803 0.006655
vt 0.956803 0.000000
vt 0.949048 0.006655
vt 0.947366 0.000000
vt 0.054104 0.502891
vt 0.054251 0.509546
vt 0.045143 0.509546
vt 0.000000 0.256308
vt 0.000000 0.251445
vt 0.007850 0.251445
vt 0.007850 0.256308
vt 0.000000 0.246582
vt 0.000000 0.241720
vt 0.007850 0.241720
vt 0.007850 0.246582
vt 0.403533 0.251445
vt 0.403533 0.256308
vt 0.395683 0.256308
vt 0.395683 0.251445
vt 0.403533 0.246582
vt 0.395683 0.246582
vt 0.344446 0.342377
vt 0.344446 0.999932
vt 0.266170 0.999932
vt 0.266170 0.342377
vt 0.718533 0.999932
vt 0.640256 0.999932
vt 0.640255 0.342377
vt 0.718533 0.342377
vt 0.547103 0.502890
vt 0.500010 0.483439
vt 0.609851 0.434962
vt 0.366897 0.633067
vt 0.390166 0.565082
vt 0.500008 0.516492
vt 0.617194 0.130058
vt 0.500010 0.016309
vt 0.500008 0.522341
vt 0.506346 0.512616
vt 0.633119 0.366977
vt 0.509231 0.502890
vt 0.617194 0.875723
vt 0.577382 1.000000
vt 0.500009 0.989473
vt 0.633119 0.638916
vt 0.506347 0.493165
vt 0.609851 0.570932
vt 0.577382 0.005781
vt 0.382822 0.124209
vt 0.422634 -0.000068
vt 0.500006 0.010459
vt 0.500006 0.477590
vt 0.366897 0.361128
vt 0.490785 0.497041
vt 0.493671 0.506767
vt 0.452913 0.497041
vt 0.390166 0.429112
vt 0.382822 0.869873
vt 0.500008 0.983623
vt 0.493670 0.487316
vt 0.422634 0.994151
vt 0.636817 0.156314
vt 0.875000 0.156314
vt 0.875000 0.984312
vt 0.636817 0.984312
vt 0.000000 0.156314
vt 0.125000 0.156314
vt 0.125000 0.984312
vt 0.000000 0.984313
vt 1.000000 0.156314
vt 1.000000 0.984313
vt 0.363296 0.156314
vt 0.431676 0.156314
vt 0.431676 0.984311
vt 0.363296 0.984312
vt 0.500000 0.156314
vt 0.568437 0.156314
vt 0.568437 0.984311
vt 0.500000 0.984311
vn -0.000000 -1.000000 -0.000000
vn -0.000000 1.000000 0.000000
vn -0.000000 0.000000 1.000000
vn -1.000000 -0.000000 -0.000000
vn -0.000000 0.000000 -1.000000
vn 1.000000 -0.000000 -0.000000
vn -0.684400 -0.695200 0.219900
vn -0.401400 -0.914900 0.043000
vn 0.401400 -0.914900 0.043000
vn 0.684300 -0.695200 0.219900
vn -0.684400 -0.695200 -0.219900
vn -0.401400 -0.914900 -0.043000
vn 0.401400 -0.914900 -0.043000
vn 0.684300 -0.695200 -0.219900
vn 0.222100 0.975000 0.000000
vn -0.447400 0.894300 0.000000
vn 0.447400 0.894300 0.000000
vn -0.222000 0.975000 0.000000
vn 0.737200 -0.675700 -0.000000
vn 0.437300 -0.899300 -0.000000
vn -0.437400 -0.899300 -0.000000
vn -0.737200 -0.675600 -0.000000
vn -0.984700 -0.174500 -0.000000
vn 0.984700 -0.174500 0.000000
vn 0.051600 0.998700 -0.000000
vn -0.238800 0.971100 0.000000
vn 0.238800 0.971100 -0.000000
vn 0.254100 0.967200 0.000000
vn -0.051500 0.998700 0.000000
vn -0.577800 0.816100 0.000000
vn 0.578500 0.815700 0.000000
vn -0.254100 0.967200 -0.000000
g Cube.002_Cube.001_Cube.002_Cube.001_cover
s off
f 18/1/1 20/2/1 13/3/1 12/4/1 14/5/1 19/6/1
f 36/7/2 76/8/2 38/9/2 46/10/2
f 13/3/1 20/2/1 17/11/1 10/12/1
f 1/13/3 21/14/3 19/15/3 14/16/3 15/17/3
f 18/18/4 19/19/4 21/20/4 3/21/4
f 3/22/5 16/23/5 17/24/5 20/25/5 18/26/5
f 1/27/2 74/28/2 5/29/2 21/30/2
f 13/3/1 10/12/1 11/31/1 12/4/1
f 21/30/2 5/29/2 8/32/2 3/33/2
f 29/34/1 30/35/1 31/31/1 32/12/1
f 31/31/1 30/35/1 39/36/1 40/37/1
f 37/38/5 43/39/5 45/40/5 42/41/5 41/42/5
f 43/43/6 37/21/6 46/20/6 44/44/6
f 38/45/3 40/46/3 39/47/3 44/48/3 46/49/3
f 29/34/1 32/12/1 42/50/1 45/51/1
f 41/52/2 71/53/2 35/54/2 37/55/2
f 35/54/2 36/7/2 46/10/2 37/55/2
f 43/56/1 44/57/1 39/36/1 30/35/1 29/34/1 45/51/1
f 15/58/1 14/5/1 12/4/1 11/31/1
f 42/41/5 64/59/5 41/42/5
f 41/42/5 64/59/5 2/60/5 67/61/5
f 67/61/5 2/60/5 34/62/5
f 34/62/5 2/60/5 59/63/5
f 2/60/5 62/64/5 16/23/5 59/63/5
f 16/23/5 62/64/5 17/24/5
f 15/17/3 63/65/3 1/13/3
f 23/66/3 58/67/3 1/13/3 63/65/3
f 58/67/3 23/66/3 33/68/3
f 68/69/3 33/68/3 23/66/3
f 38/45/3 68/69/3 23/66/3 57/70/3
f 57/70/3 40/46/3 38/45/3
f 40/71/7 57/72/7 66/73/7 31/74/7
f 57/44/8 23/75/8 47/76/8 66/77/8
f 47/76/9 23/75/9 63/78/9 60/79/9
f 15/71/10 11/80/10 60/81/10 63/82/10
f 32/83/11 65/84/11 64/85/11 42/86/11
f 64/43/12 65/87/12 48/88/12 2/89/12
f 48/88/13 61/90/13 62/91/13 2/89/13
f 17/86/14 62/92/14 61/93/14 10/94/14
f 67/95/15 34/96/15 70/97/15 73/98/15
f 59/99/16 16/100/16 69/101/16 72/102/16
f 41/52/17 67/95/17 73/98/17 71/53/17
f 34/96/18 59/99/18 72/102/18 70/97/18
f 33/103/15 68/104/15 78/105/15 75/106/15
f 1/27/16 58/107/16 77/108/16 74/28/16
f 68/104/17 38/9/17 76/8/17 78/105/17
f 58/107/18 33/103/18 75/106/18 77/108/18
f 8/32/2 69/101/2 16/100/2 3/33/2
f 10/94/19 61/93/19 60/81/19 11/80/19
f 47/76/20 60/79/20 61/90/20 48/88/20
f 65/87/21 66/77/21 47/76/21 48/88/21
f 31/74/22 66/73/22 65/84/22 32/83/22
g Cube.002_Cube.001_Cube.002_Cube.001_edges
f 8/109/23 5/110/23 6/111/23 7/112/23
f 35/113/24 26/114/24 25/115/24 36/116/24
f 9/117/5 69/118/5 53/119/5
f 50/120/3 56/121/3 76/122/3
f 24/123/5 69/118/5 8/124/5
f 9/117/5 71/125/5 73/126/5
f 51/127/5 53/119/5 69/118/5
f 9/117/5 73/126/5 70/128/5
f 28/129/5 26/130/5 35/131/5
f 71/125/5 49/132/5 28/129/5
f 72/133/5 69/118/5 9/117/5
f 71/125/5 55/134/5 49/132/5
f 28/129/5 35/131/5 71/125/5
f 24/123/5 8/124/5 7/135/5
f 69/118/5 24/123/5 51/127/5
f 9/117/5 55/134/5 71/125/5
f 70/128/5 72/133/5 9/117/5
f 22/136/3 6/137/3 5/138/3
f 74/139/3 52/140/3 22/136/3
f 75/141/3 78/142/3 4/143/3
f 74/139/3 54/144/3 52/140/3
f 22/136/3 5/138/3 74/139/3
f 27/145/3 76/122/3 36/146/3
f 4/143/3 74/139/3 77/147/3
f 27/145/3 50/120/3 76/122/3
f 4/143/3 77/147/3 75/141/3
f 4/143/3 78/142/3 76/122/3
f 4/143/3 54/144/3 74/139/3
f 27/145/3 36/146/3 25/148/3
f 56/121/3 4/143/3 76/122/3
g Cube.002_Cube.001_Cube.002_Cube.001_pages
f 50/149/25 27/150/25 28/151/25 49/152/25
f 6/153/26 22/154/26 24/155/26 7/156/26
f 27/150/27 25/157/27 26/158/27 28/151/27
f 52/159/28 54/160/28 53/161/28 51/162/28
f 22/154/29 52/159/29 51/162/29 24/155/29
f 4/163/30 56/164/30 55/165/30 9/166/30
f 54/160/31 4/163/31 9/166/31 53/161/31
f 56/164/32 50/149/32 49/152/32 55/165/32
